<?xml version="1.0" encoding="utf-8"?>
<!-- Generator: Adobe Illustrator 19.0.0, SVG Export Plug-In . SVG Version: 6.00 Build 0)  -->
<svg version="1.1" xmlns="http://www.w3.org/2000/svg" xmlns:xlink="http://www.w3.org/1999/xlink" x="0px" y="0px"
	 viewBox="0 0 450 190.5" style="enable-background:new 0 0 450 190.5;" xml:space="preserve">
<style type="text/css">
	.st0{display:none;}
	.st1{display:inline;fill:#C9BDBD;}
	.st2{fill:#FFFFFF;}
</style>
<g id="Layer_2" class="st0">
	<rect id="XMLID_1_" x="-3.2" class="st1" width="459.2" height="190.5"/>
</g>
<g id="Layer_1">
	<g id="XMLID_2_">
		<g id="XMLID_29_">
			<path id="XMLID_34_" class="st2" d="M305.9,78.8c-5.8,0.4-4.7,6.8-9.9,6.7c1.7,0.1,3.1-1.4,3-4.3c-0.1-1.6,1.2-2.6,1.7-2.9
				c-10.9-0.8-8.2,9.7-16.2,9.6c2.4,0.1,4.4-2,4.1-6c-0.2-2.4,1.8-3.8,2.4-4.2c-0.7,0-1.4,0-2.1,0c-11.8,1.6-7.4,13.1-16.8,14.3
				c2.9-0.3,5.1-3.2,4-8.1c-0.7-3.1,1.9-5.3,2.4-5.7c-4.6-19.9-36.7-20.4-36.7-20.4c26.3,7.7,22.1,60.8-7.7,60.8
				c-3.4,0-6.8-1.4-9.9-3.6c2.7-3,5-6.2,7-8.8l3.4-4.2c0,0,0,0,0.1-0.1c0.3-0.3,0.5-0.6,0.7-0.9l9.4-11.7c3.3-4.1,3.3-10.8,0-14.9
				l-21.6-26.7l10-12.5c1.6-2,3.1-4,3.1-6.9s-1.6-5-3.2-7l-9.9-12.1c-1-1.3-2.2-2.2-3.6-2.6l0.6-0.8c0.7-0.9,0.7-2.3,0-3.2l-1.7-2.2
				c-0.7-0.9-1.8-0.9-2.5,0l-1.7,2.2c-0.7,0.9-0.7,2.3,0,3.2l0.6,0.8c-1.3,0.5-2.6,1.4-3.6,2.6l-9.9,12.1c-1.6,2-3.1,4.2-3.1,7
				s1.5,4.9,3.1,6.9l10,12.5l-21.7,26.7c-1.6,2-2.5,4.6-2.5,7.4c0,2.8,0.9,5.4,2.5,7.4l14.6,18.1c1.8,2.4,3.8,5,6.1,7.6
				c-3.1,2.2-6.4,3.6-9.9,3.6c-29.8,0-34-53.1-7.7-60.8c0,0-32.1,0.4-36.7,20.4c0.5,0.4,3,2.6,2.4,5.7c-1,4.8,1.1,7.7,4,8.1
				c-9.4-1.2-5-12.7-16.8-14.3c-0.7,0-1.4,0-2.1,0c0.6,0.4,2.6,1.9,2.4,4.2c-0.3,4,1.7,6.1,4.1,6c-8,0.1-5.3-10.4-16.2-9.6
				c0.5,0.3,1.8,1.3,1.7,2.9c-0.2,2.9,1.3,4.3,3,4.3c-5.2,0.1-4-6.3-9.9-6.7c-5,0.8-10.1,2.1-15,4.1c14.9,3,32.3,8,43.2,16.7
				c15.8,12.5,23.9,28.1,44.1,28.1c6.3,0,11.7-2.5,16.2-6c4.5,3.5,9.9,6,16.2,6c20.2,0,28.4-15.6,44.1-28.1
				C288.5,91,306,86,320.9,82.9C316.1,80.9,310.9,79.6,305.9,78.8 M208.7,32.9l-3.5-4.4c0,0,3.5-4.4,3.5-4.4c1-1.2,2.8-1.5,4.4,0.1
				c-1.8-1.8-1-4.3,0.2-5.8l4.1-5l4.1,5c1.2,1.5,2,4,0.2,5.8c1.6-1.6,3.4-1.4,4.4-0.1l3.5,4.4l-3.5,4.4c-1,1.2-2.8,1.5-4.4-0.1
				c1.8,1.8,1,4.3-0.2,5.8l-4.1,5l-4.1-5c-1.2-1.5-2-4-0.2-5.8C211.4,34.4,209.7,34.1,208.7,32.9 M217.3,108.1l-6.9-8.5
				c-2-2.5-3.3-6.8-0.3-9.8c-2.8,2.8-5.7,2.3-7.4,0.2c0,0-6-7.4-6-7.4c0,0,6-7.4,6-7.4c1.7-2.1,4.7-2.6,7.4,0.2
				c-3-3-1.7-7.3,0.3-9.8l6.9-8.5l6.9,8.5c2,2.5,3.3,6.8,0.3,9.8c2.8-2.8,5.7-2.3,7.4-0.2l6,7.4l-6,7.4c-1.7,2.1-4.7,2.6-7.4-0.2
				c3,3,1.7,7.3-0.3,9.8L217.3,108.1z"/>
			<path id="XMLID_33_" class="st2" d="M218.4,28.5c0.2,0,0.5-0.3,0.7-0.5c0.6-0.9,1-1.7,0.9-2.3c-0.6,0-1.4,0.3-2.2,0.9
				c-0.3,0.2-0.6,0.5-0.6,0.7c0-0.2-0.3-0.6-0.6-0.7c-0.8-0.6-1.6-0.9-2.2-0.9c0,0.6,0.3,1.4,0.9,2.3c0.2,0.3,0.5,0.5,0.7,0.5
				c-0.2,0-0.5,0.3-0.7,0.6c-0.6,0.8-0.9,1.6-0.9,2.2c0.6,0,1.4-0.3,2.3-0.9c0.2-0.2,0.5-0.5,0.5-0.7c0,0.2,0.2,0.5,0.5,0.7
				c0.9,0.6,1.7,1,2.3,0.9c0-0.6-0.3-1.4-0.9-2.2C219,28.8,218.7,28.5,218.4,28.5"/>
			<path id="XMLID_32_" class="st2" d="M219.1,82.5c0.3,0,0.8-0.4,1.1-0.8c1-1.4,1.6-2.7,1.5-3.6c-0.9,0-2.2,0.5-3.6,1.5
				c-0.4,0.3-0.9,0.8-0.9,1.2c0-0.3-0.5-0.9-0.9-1.2c-1.4-1-2.7-1.5-3.6-1.5c0,0.9,0.5,2.3,1.5,3.6c0.3,0.4,0.8,0.8,1.1,0.8
				c-0.3,0-0.8,0.4-1.2,0.9c-1,1.4-1.5,2.7-1.5,3.6c0.9,0,2.3-0.5,3.7-1.5c0.4-0.3,0.8-0.8,0.8-1.1c0,0.3,0.4,0.8,0.8,1.1
				c1.4,1,2.7,1.6,3.7,1.5c0-0.9-0.5-2.2-1.5-3.6C220,82.9,219.5,82.5,219.1,82.5"/>
		</g>
		<g id="XMLID_60_">
			<path id="XMLID_59_" class="st2" d="M38.6,186.3c0,0.5-0.4,1.2-0.4,1.2H26.9c0,0,0-0.7,0.3-1.1c0.1-0.2,3.1-0.5,3.5-1.4
				c0.2-1.1,0.2-2.7,0.2-3.9v-18.4c-2.9,6.1-11.9,25-11.9,25s-0.4,0-1.8-2.7c-0.8-1.5-9.8-22.2-9.8-22.2s0,20.7,0,20.1
				c0,1.7-0.2,2.9-0.2,2.9l4,0.3v0.1c0,0.5-0.4,1.2-0.4,1.2H1c0,0,0-0.7,0.3-1.1c0.1-0.1,2.6-0.4,3-1.4c0.2-0.7,0.2-2.1,0.3-4.5V160
				c-1.5-0.7-3.4-0.6-3.4-0.6l0.1-1.1c0,0,1.2-0.6,4.2-0.6c1.5,0,3.2,0.3,4.4,1.8c1.5,1.8,3.9,7.9,5.4,11.5
				c1.8,4.4,4.2,10.4,4.2,10.4s2.8-6,6.1-13.1c4.4-9.4,5.1-10.3,8.5-10.3h4.4c0,0,0,0.7-0.3,1.1c-0.1,0.1-3,0.4-3.3,1.5
				c-0.2,0.7-0.2,2.2-0.2,4.7v17.6c0,1.7-0.2,2.9-0.2,2.9l4,0.3V186.3z"/>
			<path id="XMLID_58_" class="st2" d="M65.3,179.4l-1.6,8H43.1c0,0,0-0.8,0.3-1.2c0.1-0.1,3-0.4,3.3-1.5c0.2-0.7,0.2-2.1,0.2-4.5
				c0-1.3,0-17.4,0-17.6c0-1.7,0.2-2.9,0.2-2.9l-4.1-0.3v-0.1c0-0.4,0.3-1,0.4-1.2h18.8l1.2,6.9l-0.8,0.5c0,0-3-3.7-3.9-4.4
				c-0.8-0.5-3-0.9-4.2-1c-2.2-0.2-3.5-0.2-3.5-0.2c0,2.6,0,7,0,11.5c0.4,0,1.4,0,2.5,0c6.2,0,8.3-0.4,8.3-0.4s0,0.5,0,0.8
				c-0.1,0.5-0.6,1.1-1,1.3c-0.8,0.4-2.3,0.5-4,0.5c-0.4,0-4.5,0-5.8,0v8.9c0,1.7-0.1,2.8-0.1,2.8s1.6,0.3,2.7,0.3
				c3.3,0,5.6-0.7,6.8-1.7c1.2-1,3.6-5.1,3.6-5.1L65.3,179.4z"/>
			<path id="XMLID_55_" class="st2" d="M80.8,186.2L80.8,186.2c0,0.6-0.4,1.3-0.4,1.3H69c0,0,0-0.7,0.3-1.1c0.1-0.1,3-0.4,3.3-1.4
				c0.2-0.7,0.2-2.1,0.2-4.5c0-1.3,0-17.4,0-17.7c0-1.7,0.2-2.9,0.2-2.9l-4-0.3v-0.1c0-0.5,0.4-1.2,0.4-1.2h11c0,0,0,0.7-0.3,1.1
				c-0.1,0.1-2.6,0.4-2.9,1.4c-0.2,0.8-0.2,2.1-0.2,4.5c0,1.2,0,17.4,0,17.7c0,1.6-0.2,2.9-0.2,2.9L80.8,186.2z M97.1,186.5v0.9
				c0,0-1.9,0.9-4.3,0.9c-2,0-5.9-0.4-12.5-13c-0.5-0.9-1-2.1-1-2.1c0,0,4.6-6.7,7.3-10.6c1-1.4,2.1-2.8,2.1-2.8l-3.9-0.4v-0.1
				c0-0.5,0.3-1.2,0.3-1.2h9c0,0,0,0.3-0.2,0.6c-0.1,0.1-0.2,0.3-0.3,0.5C89.2,163,84.4,170,83,172.1c1.1,1.4,5.1,7.9,8.3,11.6
				C93.8,186.6,97.1,186.5,97.1,186.5"/>
			<path id="XMLID_52_" class="st2" d="M127.6,172.1c0,9.2-6.5,15.8-15.6,15.8c-2.7,0-6.3-0.7-9.3-3.2c-3.1-2.6-4.7-6.5-4.7-11.6
				c0-2,0.5-8.2,5.6-12.3c2.3-1.8,5.4-3.1,10-3.1C122,157.8,127.6,163.4,127.6,172.1 M122.6,172.9c0-6.7-2.9-12.9-10.7-12.9
				c-6.2,0-9.1,5.1-9.1,11.7c0,3.8,1,14,10.9,14c1.2,0,2.5-0.2,4.2-0.8C122.2,182,122.6,174.7,122.6,172.9"/>
			<path id="XMLID_51_" class="st2" d="M161.8,158.3c0,0,0,0.7-0.3,1.1c-0.1,0.1-2.6,0.4-3,1.4c-0.2,0.8-0.2,2.1-0.2,4.5v22.2
				c0,0-2.3,0.1-4.1-2.2c-2.3-3-15.7-22.5-15.7-22.5v20.1c0,1.7-0.2,2.9-0.2,2.9l4,0.3c0,0,0,0,0,0.1c0,0.5-0.3,1.1-0.3,1.1h-9.8
				c0,0,0-0.7,0.3-1.1c0.1-0.1,2.7-0.4,3-1.4c0.2-0.7,0.2-2.1,0.2-4.5v-20.4c-1.5-0.7-3.5-0.6-3.5-0.6l0.1-1.1c0,0,1.2-0.6,4.2-0.6
				c3.3,0,4.6,1.9,6.8,4.9c0.5,0.7,2.8,4,5.4,7.9c2.3,3.3,4.9,7.2,6.8,9.9v0v-17.7c0-1.7,0.2-2.9,0.2-2.9l-4-0.3v-0.1
				c0-0.5,0.4-1.2,0.4-1.2H161.8z"/>
			<path id="XMLID_50_" class="st2" d="M194,173.7c0,0,0,0.7-0.3,1.1c-0.1,0.1-2.2,0.4-2.5,1.5c-0.2,0.7-0.2,2.1-0.2,4.5
				c0,0.8,0,1.7,0,4.6h0c-0.9,0-2.8,0.7-3.7,1.1c-2.3,0.9-4.1,1.6-7.1,1.6c-6.2,0-14.3-3-14.3-15.2c0-4.8,3-15,16-15
				c4.6,0,8.7,1.3,8.7,2.9c0,1.6-3.4,2.7-3.4,2.7s-2.5-3.2-7.7-3.2c-6.5,0-8.8,6-8.8,11.3c0,9.2,4.5,14,10.7,14c2,0,3.9-0.5,5.5-1
				c0-2.6,0-5.9,0-6.1c0-1.6,0.2-2.9,0.2-2.9l-4-0.3v-0.1c0-0.5,0.4-1.2,0.4-1.2H194z"/>
			<path id="XMLID_47_" class="st2" d="M219,186.2L219,186.2c0,0.6-0.4,1.3-0.4,1.3h-11.3c0,0,0-0.7,0.3-1.1c0.1-0.1,3-0.4,3.3-1.4
				c0.2-0.7,0.2-2.1,0.2-4.5c0-1.3,0-17.4,0-17.7c0-1.7,0.2-2.9,0.2-2.9l-4-0.3v-0.1c0-0.5,0.4-1.2,0.4-1.2h11c0,0,0,0.7-0.3,1.1
				c-0.1,0.1-2.6,0.4-2.9,1.4c-0.2,0.8-0.2,2.1-0.2,4.5c0,1.2,0,17.4,0,17.7c0,1.6-0.2,2.9-0.2,2.9L219,186.2z M235.3,186.5v0.9
				c0,0-1.9,0.9-4.3,0.9c-2,0-5.9-0.4-12.5-13l-1-2.1c0,0,4.6-6.7,7.3-10.6c1-1.4,2.1-2.8,2.1-2.8l-3.9-0.4v-0.1
				c0-0.5,0.3-1.2,0.3-1.2h9c0,0,0,0.3-0.2,0.6c-0.1,0.1-0.2,0.3-0.3,0.5c-4.4,3.7-9.2,10.6-10.7,12.7c1.1,1.4,5.1,7.9,8.3,11.6
				C232,186.6,235.3,186.5,235.3,186.5"/>
			<path id="XMLID_46_" class="st2" d="M249.2,186.3c0,0.5-0.4,1.1-0.4,1.1h-11.3c0,0,0-0.7,0.3-1.1c0.1-0.1,2.9-0.4,3.3-1.4
				c0.2-0.7,0.2-2.1,0.2-4.5c0-1.3,0-17.6,0-17.8c0-1.7,0.1-2.9,0.1-2.9l-4-0.3v-0.1c0-0.5,0.3-1.1,0.3-1.1h11.1c0,0,0,0.7-0.3,1.1
				c-0.1,0.1-2.6,0.4-3,1.4c-0.2,0.7-0.2,2.2-0.2,4.6c0,1.3,0,17.4,0,17.7c0,1.7-0.1,2.9-0.1,2.9l4,0.3V186.3z"/>
			<path id="XMLID_45_" class="st2" d="M283.2,158.3c0,0,0,0.7-0.3,1.1c-0.1,0.1-2.6,0.4-3,1.4c-0.2,0.8-0.2,2.1-0.2,4.5v22.2
				c0,0-2.3,0.1-4.1-2.2c-2.3-3-15.7-22.5-15.7-22.5v20.1c0,1.7-0.2,2.9-0.2,2.9l4,0.3c0,0,0,0,0,0.1c0,0.5-0.3,1.1-0.3,1.1h-9.8
				c0,0,0-0.7,0.3-1.1c0.1-0.1,2.7-0.4,3-1.4c0.2-0.7,0.2-2.1,0.2-4.5v-20.4c-1.5-0.7-3.5-0.6-3.5-0.6l0.1-1.1c0,0,1.2-0.6,4.2-0.6
				c3.3,0,4.6,1.9,6.8,4.9c0.5,0.7,2.8,4,5.4,7.9c2.3,3.3,4.9,7.2,6.8,9.9v0v-17.7c0-1.7,0.2-2.9,0.2-2.9l-4-0.3v-0.1
				c0-0.5,0.4-1.2,0.4-1.2H283.2z"/>
			<path id="XMLID_44_" class="st2" d="M315.5,173.7c0,0,0,0.7-0.3,1.1c-0.1,0.1-2.2,0.4-2.5,1.5c-0.2,0.7-0.2,2.1-0.2,4.5
				c0,0.8,0,1.7,0,4.6h0c-0.9,0-2.8,0.7-3.7,1.1c-2.3,0.9-4.1,1.6-7.1,1.6c-6.2,0-14.3-3-14.3-15.2c0-4.8,3-15,16-15
				c4.6,0,8.7,1.3,8.7,2.9c0,1.6-3.4,2.7-3.4,2.7s-2.5-3.2-7.7-3.2c-6.5,0-8.8,6-8.8,11.3c0,9.2,4.5,14,10.7,14c2,0,3.9-0.5,5.5-1
				c0-2.6,0-5.9,0-6.1c0-1.6,0.2-2.9,0.2-2.9l-4-0.3v-0.1c0-0.5,0.4-1.2,0.4-1.2H315.5z"/>
			<path id="XMLID_41_" class="st2" d="M347.3,172.3c0,13.1-12.5,15.2-17.4,15.2h-11.6c0,0,0-0.7,0.3-1.1c0.1-0.1,3-0.4,3.3-1.4
				c0.2-0.7,0.2-2.1,0.3-4.5c0-1.3,0-17.5,0-17.7c0-1.7,0.1-2.9,0.1-2.9l-4-0.3v-0.1c0-0.5,0.4-1.2,0.4-1.2h7.6c0,0,1.7,0,3.7,0
				C336.9,158.1,347.3,160.4,347.3,172.3 M343,172.8c0-9.7-8-13.2-13.9-13.2c-1.6,0-1.9,0.1-2.8,0.1c0,4.4-0.1,20-0.1,24.3
				c0.4,0.2,2.4,1.3,6.3,1.3C334.9,185.3,343,183.5,343,172.8"/>
			<path id="XMLID_38_" class="st2" d="M381.6,172.1c0,9.2-6.5,15.8-15.6,15.8c-2.7,0-6.3-0.7-9.3-3.2c-3.1-2.6-4.7-6.5-4.7-11.6
				c0-2,0.5-8.2,5.6-12.3c2.3-1.8,5.4-3.1,10-3.1C376,157.8,381.6,163.4,381.6,172.1 M376.6,172.9c0-6.7-2.9-12.9-10.7-12.9
				c-6.2,0-9.1,5.1-9.1,11.7c0,3.8,1,14,10.9,14c1.2,0,2.5-0.2,4.2-0.8C376.2,182,376.6,174.7,376.6,172.9"/>
			<path id="XMLID_31_" class="st2" d="M423.7,186.3c0,0.5-0.4,1.2-0.4,1.2h-11.4c0,0,0-0.7,0.3-1.1c0.1-0.2,3.1-0.5,3.5-1.4
				c0.2-1.1,0.2-2.7,0.2-3.9v-18.4c-2.9,6.1-11.9,25-11.9,25s-0.4,0-1.8-2.7c-0.8-1.5-9.8-22.2-9.8-22.2s0,20.7,0,20.1
				c0,1.7-0.2,2.9-0.2,2.9l4,0.3v0.1c0,0.5-0.4,1.2-0.4,1.2h-9.8c0,0,0-0.7,0.3-1.1c0.1-0.1,2.6-0.4,3-1.4c0.2-0.7,0.2-2.1,0.3-4.5
				V160c-1.5-0.7-3.4-0.6-3.4-0.6l0.1-1.1c0,0,1.2-0.6,4.2-0.6c1.5,0,3.2,0.3,4.4,1.8c1.5,1.8,3.9,7.9,5.4,11.5
				c1.8,4.4,4.2,10.4,4.2,10.4s2.8-6,6.1-13.1c4.5-9.4,5.1-10.3,8.5-10.3h4.4c0,0,0,0.7-0.3,1.1c-0.1,0.1-3,0.4-3.3,1.5
				c-0.2,0.7-0.2,2.2-0.2,4.7v17.6c0,1.7-0.2,2.9-0.2,2.9l4,0.3V186.3z"/>
			<path id="XMLID_30_" class="st2" d="M440.6,157.8c4.4,0,6.2,1.1,6.2,2.2c0,1.6-2.1,2.7-2.1,2.7s-3-2.3-6.9-2.3
				c-3.4,0-5.2,1.5-5.2,3.8c0,3.5,3.2,5.2,7.1,7c3.9,1.9,8.1,3.9,8.1,8.7c0,3.7-3,8-11.1,8c-5.2,0-8.8-1.9-8.8-4.1
				c0-2.2,2.5-3.3,2.5-3.3s2.2,5.3,7.8,5.3c4.1,0,5.9-1.9,5.9-4.7c0-3.3-3.1-4.8-6.5-6.4c-4.3-2-8.3-3.8-8.3-8.8
				C429.2,161,434.3,157.8,440.6,157.8"/>
		</g>
	</g>
</g>
</svg>
